<svg width="54" height="48" viewBox="0 0 54 48" fill="none" xmlns="http://www.w3.org/2000/svg">
<path fill-rule="evenodd" clip-rule="evenodd" d="M15.7891 1.87301C15.3158 1.94163 15.072 1.98172 14.8559 2.02684C14.7447 2.04996 14.6189 2.07532 14.576 2.08297C14.5332 2.09061 14.3932 2.12101 14.265 2.15028C14.1366 2.17974 13.9826 2.2148 13.9227 2.22822C13.8147 2.25246 13.4504 2.34737 12.9741 2.47566C12.8373 2.51239 12.6101 2.57747 12.4694 2.61998C12.3289 2.66268 12.1889 2.70296 12.1585 2.70967C12.1047 2.72142 12.0002 2.75573 11.7764 2.83497C11.7167 2.85623 11.5067 2.92485 11.3098 2.98731C11.1131 3.04996 10.9031 3.12045 10.8432 3.14413C10.7835 3.16762 10.6295 3.22393 10.5011 3.26924C10.3729 3.31455 10.2118 3.3731 10.1433 3.39958C10.075 3.42606 9.99104 3.45832 9.9567 3.47118C9.48507 3.65056 8.68776 3.97612 8.41695 4.10031C8.30571 4.15121 8.15883 4.21759 8.09033 4.24743C7.80814 4.37124 7.69261 4.42494 7.17283 4.67312C6.87346 4.81614 6.6075 4.94592 6.58175 4.96158C6.55599 4.97724 6.4371 5.04139 6.31728 5.10422C5.86487 5.3414 5.56458 5.50642 5.37589 5.6211C5.26857 5.68655 5.17376 5.73987 5.16517 5.73987C5.1564 5.73987 5.06215 5.79358 4.95577 5.8594C4.8492 5.92503 4.69205 6.01826 4.60657 6.06637C4.5209 6.11466 4.44401 6.16333 4.43542 6.17452C4.42684 6.18589 4.39884 6.20473 4.37327 6.21647C4.34752 6.22822 4.28947 6.26216 4.24412 6.2918C4.19877 6.32164 4.04143 6.4227 3.89418 6.51686C3.56924 6.7244 3.55711 6.76561 3.82101 6.76486C4.00075 6.7643 4.50336 6.69158 4.5573 6.6582C4.57017 6.65019 4.69149 6.62128 4.82699 6.59369C5.053 6.54763 5.25606 6.49225 5.99067 6.27633C6.41116 6.1527 7.21034 5.89688 7.36674 5.83572C7.40556 5.82061 7.50709 5.78649 7.59276 5.75983C7.67824 5.73335 7.8673 5.66827 8.01269 5.61513C8.15808 5.56218 8.31206 5.50698 8.3548 5.49244C8.39754 5.47789 8.55151 5.42158 8.6969 5.36714C8.84229 5.3125 8.99309 5.26066 9.03173 5.25153C9.07055 5.24258 9.10993 5.22281 9.11926 5.2079C9.12859 5.19279 9.16947 5.18049 9.21015 5.18049C9.25103 5.18049 9.2919 5.16818 9.30123 5.15308C9.31056 5.13816 9.39175 5.10236 9.4819 5.07383C9.57204 5.0453 9.72975 4.98862 9.8324 4.94778C9.93505 4.90713 10.257 4.78108 10.5478 4.66809C10.8386 4.5549 11.1185 4.44396 11.1698 4.42121C11.2212 4.39865 11.3611 4.34215 11.481 4.29553C11.7325 4.19783 11.7458 4.19261 12.0564 4.06842C12.1848 4.01715 12.4227 3.92317 12.5853 3.85977C12.7477 3.79619 12.9087 3.73223 12.9429 3.71769C12.9772 3.70314 13.2221 3.60637 13.4873 3.50288C13.7525 3.39921 13.9974 3.30206 14.0317 3.28677C14.0659 3.27167 14.2268 3.2079 14.3893 3.14525C14.7219 3.01696 15.1125 2.86275 15.2292 2.81372C15.2721 2.79581 15.349 2.76318 15.4003 2.74137C15.4517 2.71936 15.6756 2.62781 15.8981 2.53775C16.6975 2.21424 16.8779 2.11504 16.8779 1.99962C16.8779 1.82472 16.4591 1.77605 15.7891 1.87301ZM33.5974 11.1518C32.8001 11.4464 32.5523 13.0028 33.2634 13.2502C33.6213 13.3748 34.1161 13.1786 34.2563 12.8566C34.6941 11.8497 34.3212 10.8846 33.5974 11.1518ZM35.9813 11.2131C35.7339 11.2594 35.4401 11.4977 35.3345 11.7378C35.1984 12.0466 35.1917 12.079 35.1932 12.416C35.1958 13.0093 35.3821 13.2476 35.838 13.2416C36.388 13.2344 36.6415 12.9491 36.7544 12.2111C36.8578 11.5344 36.5293 11.1104 35.9813 11.2131ZM47.4435 27.5079C46.7665 27.8392 46.5118 29.1014 47.0403 29.5044C47.3376 29.7307 47.986 29.548 48.1562 29.1896C48.64 28.171 48.2018 27.1368 47.4435 27.5079ZM49.8384 27.5439C48.9052 27.8361 48.8042 29.576 49.7204 29.576C50.134 29.576 50.4175 29.3841 50.5487 29.0155C50.8877 28.0636 50.5319 27.3267 49.8384 27.5439ZM10.1124 33.3492C9.34285 33.7029 9.1997 35.2275 9.91807 35.4206C10.2402 35.5073 10.7197 35.306 10.8401 35.0332C11.3219 33.9422 10.9076 32.9836 10.1124 33.3492ZM12.4776 33.388C11.8184 33.5899 11.5258 34.8172 12.0286 35.2709C12.3098 35.5247 13.009 35.3766 13.1579 35.0317C13.62 33.9621 13.2805 33.1419 12.4776 33.388ZM23.4412 41.8264C23.2277 41.8868 22.6848 42.0759 22.5237 42.1462C22.4724 42.1685 22.3953 42.2012 22.3526 42.2187C22.3098 42.2362 22.1952 42.2866 22.0978 42.3308C22.0006 42.3748 21.9142 42.4109 21.9058 42.4109C21.8974 42.4109 21.7811 42.4609 21.6473 42.5219C21.3703 42.6483 21.2029 42.7234 21.0461 42.7921C20.9862 42.8184 20.8182 42.8952 20.6728 42.9627C20.5274 43.0304 20.3384 43.1172 20.2529 43.1558C20.1674 43.1943 19.9994 43.2718 19.8796 43.328C19.7598 43.3841 19.5638 43.4745 19.4442 43.5288C19.103 43.6837 18.7161 43.8642 18.0444 44.182C17.5203 44.4299 15.4397 45.4682 15.0892 45.6567C14.9183 45.7488 14.7292 45.8493 14.6693 45.8803C14.6094 45.911 14.4485 45.9983 14.3117 46.0742C14.1747 46.1501 14.0347 46.2276 14.0006 46.2465C13.9664 46.2655 13.7876 46.3716 13.6034 46.4823C13.419 46.5933 13.2437 46.6979 13.2139 46.715C13.1838 46.7322 13.1155 46.7775 13.062 46.8161C13.0084 46.8545 12.9556 46.886 12.9446 46.886C12.9337 46.886 12.9078 46.9002 12.8873 46.9177C12.8666 46.9353 12.7167 47.0434 12.5541 47.1583C11.9537 47.5825 11.6402 47.9718 11.877 47.999C11.9862 48.0115 12.5086 47.9036 12.9741 47.7723C13.0767 47.7434 13.2027 47.7081 13.254 47.694C13.3053 47.68 13.3893 47.6531 13.4407 47.6347C13.492 47.616 13.7648 47.5245 14.0472 47.4313C14.5588 47.2621 14.9401 47.1281 15.0582 47.0757C15.0924 47.0606 15.2744 46.9895 15.4625 46.9181C15.6508 46.8465 15.8537 46.7671 15.9136 46.7417C16.0782 46.6716 16.1204 46.6543 16.4735 46.5127C16.653 46.4408 16.877 46.3473 16.9713 46.3052C17.0653 46.2629 17.1702 46.2159 17.2046 46.2008C17.2387 46.1857 17.4627 46.0844 17.7021 45.9759C17.9418 45.8674 18.2139 45.7445 18.307 45.7029C18.5073 45.6136 20.5049 44.6136 20.7973 44.4562C20.9084 44.3964 21.1534 44.2664 21.3415 44.1674C21.5299 44.0684 21.6978 43.9772 21.7148 43.9647C21.732 43.9522 21.8091 43.9075 21.886 43.8652C22.0707 43.7639 22.3761 43.5948 22.4925 43.529C22.7154 43.4035 23.1851 43.1132 23.2759 43.0447C23.3304 43.0037 23.3834 42.9703 23.3938 42.9703C23.4043 42.9703 23.4296 42.9563 23.4504 42.9394C23.4711 42.9222 23.5788 42.8418 23.6898 42.7605C24.224 42.3695 24.3186 42.1422 24.0562 41.8803C23.9567 41.7809 23.6865 41.7572 23.4412 41.8264Z" fill="#D7AD76"/>
<path fill-rule="evenodd" clip-rule="evenodd" d="M26.6443 0.0458759C26.0808 0.194114 25.6025 0.631555 25.2945 1.28026C25.1643 1.55455 25.1307 1.63789 25.0881 1.79303C25.0082 2.08447 24.9685 2.18665 24.9674 2.10386C24.9668 2.06116 24.9438 1.92132 24.9166 1.79303C24.6258 0.430362 24.1568 -0.0272181 23.1613 0.0805574C22.3399 0.1695 22.0105 0.409851 22.0105 0.920013C22.0105 1.26665 22.0935 1.31699 22.788 1.39176C23.7706 1.49749 24.0157 1.84692 24.1256 3.3004C24.1592 3.74269 24.1258 4.36417 24.0435 4.82846C24.0262 4.92579 24.0278 4.92747 24.1758 4.94947C24.5067 4.99907 24.6579 4.85363 24.7594 4.38803C24.8837 3.81876 25.0665 3.20325 25.1715 3.00038C25.1951 2.95488 25.2143 2.9023 25.2143 2.88309C25.2143 2.85027 25.4237 2.40799 25.5023 2.27485C25.8173 1.74082 26.0521 1.52397 26.444 1.40482C27.4769 1.09137 27.6096 0.997767 27.6096 0.582888C27.6096 0.119155 27.2104 -0.102921 26.6443 0.0458759ZM51.7046 20.7824C51.1184 21.0268 50.7098 21.4302 50.6087 21.8642C50.5051 22.3078 50.8388 22.4356 51.2115 22.0951C51.4409 21.8853 51.9732 21.7324 52.1172 21.835C52.4259 22.0546 52.2695 22.4251 51.7632 22.6735C51.0603 23.0183 51.2951 23.5357 52.0898 23.3938C53.1557 23.2036 53.6019 22.3091 53.1148 21.3392C52.8681 20.8478 52.1897 20.5799 51.7046 20.7824ZM2.95784 27.5264C2.45149 27.6013 2.37292 27.9275 2.7893 28.2252C3.04108 28.4054 3.15437 28.5226 3.23107 28.6832C3.30759 28.843 3.32794 28.9543 3.42406 29.7315C3.52055 30.5113 3.54182 30.653 3.59968 30.9032C3.7712 31.6431 4.12114 31.845 4.34511 31.3334C4.3606 31.2983 4.38692 31.2487 4.4039 31.2232C4.42088 31.1975 4.48266 31.0716 4.54126 30.9435C4.59987 30.8152 4.68927 30.6194 4.74003 30.5083C4.7908 30.3972 4.85575 30.2368 4.88468 30.1518C4.9136 30.0667 4.94739 29.9828 4.9597 29.9653C4.97221 29.9478 5.00132 29.8775 5.02447 29.8091C5.04761 29.7408 5.09819 29.6149 5.13682 29.5294C5.17546 29.444 5.24433 29.2901 5.28987 29.1876C5.43395 28.8631 5.47464 28.7876 5.59688 28.6179C5.80517 28.3291 6.15418 28.1639 6.40017 28.2375C6.65903 28.3151 6.89289 28.102 6.89289 27.7887C6.89289 27.6194 6.41323 27.5952 6.02185 27.7445C5.92779 27.7805 5.82271 27.8182 5.78856 27.8281C5.7544 27.8381 5.68442 27.8717 5.63309 27.9025C5.58176 27.9332 5.49069 27.9853 5.43078 28.0183C5.30666 28.0863 4.90203 28.4654 4.90203 28.5135C4.90203 28.531 4.89102 28.5501 4.8774 28.5556C4.84082 28.5711 4.65325 28.8872 4.65325 28.9334C4.65325 29.0708 4.57094 29.0818 4.53025 28.9498C4.4304 28.625 4.40577 28.5557 4.33279 28.3908C4.20065 28.0919 3.90875 27.6804 3.82906 27.6804C3.81786 27.6804 3.78893 27.6603 3.76448 27.6358C3.68236 27.5538 3.20774 27.4895 2.95784 27.5264ZM42.7581 40.7057C42.285 40.834 41.7906 41.328 41.6421 41.8204C41.568 42.0662 41.5723 42.0598 41.5366 41.9757C41.1736 41.1221 40.8196 40.9317 39.9407 41.118C39.3615 41.2407 39.1087 41.4208 39.1249 41.6988C39.1389 41.9379 39.2085 41.9791 39.651 42.0112C39.9853 42.0352 40.1822 42.0759 40.2591 42.1367C40.2929 42.1633 40.4075 42.4249 40.6439 43.0147C40.6982 43.1503 40.7537 43.283 40.7671 43.3099C40.7805 43.3367 40.8311 43.4426 40.8795 43.5452C41.2216 44.2696 41.5499 44.32 41.6682 43.6662C41.6835 43.5825 41.7251 43.3462 41.7609 43.1411C42.0642 41.4031 42.1678 41.2687 42.9257 41.6295C43.3806 41.8458 43.4627 41.837 43.5943 41.5575C43.863 40.9862 43.4134 40.5279 42.7581 40.7057Z" fill="#F4DF89"/>
<path fill-rule="evenodd" clip-rule="evenodd" d="M44.7335 0.679263C43.9982 0.772681 43.3252 0.921851 42.3539 1.20639C42.0598 1.29254 40.931 1.66621 40.5808 1.79319C40.4353 1.84596 40.2393 1.9157 40.1452 1.94796C39.9424 2.01769 39.6471 2.12715 39.3677 2.23641C39.2565 2.28004 39.1094 2.33375 39.0411 2.35594C38.9726 2.37831 38.9013 2.4074 38.8826 2.42082C38.864 2.43425 38.7602 2.47341 38.6521 2.5079C38.5441 2.5424 38.4405 2.58193 38.4218 2.59573C38.4032 2.60952 38.3248 2.63992 38.2479 2.66304C38.1708 2.68616 38.0728 2.72215 38.0301 2.74303C37.9623 2.77604 37.8686 2.8137 37.6101 2.91178C37.576 2.92483 37.4849 2.95989 37.408 2.98954C37.3309 3.01918 37.24 3.05424 37.2057 3.06729C36.934 3.1704 36.7275 3.25189 36.6148 3.30018C36.5635 3.32218 36.4724 3.3578 36.4125 3.37943C36.3526 3.40087 36.2617 3.43537 36.2104 3.45606C36.1135 3.49541 35.8828 3.58566 35.7749 3.62668C35.7005 3.65483 35.4577 3.74862 35.3705 3.78275C35.3364 3.79617 35.2104 3.84465 35.0906 3.89052C34.9707 3.93639 34.8308 3.99196 34.7794 4.01396C34.7281 4.03596 34.6232 4.0781 34.5461 4.10757C34.4692 4.13721 34.3819 4.17395 34.3522 4.18924C34.3225 4.20453 34.2781 4.21702 34.2537 4.21702C34.229 4.21702 34.1695 4.23678 34.121 4.26084C34.0323 4.30484 33.9806 4.3261 33.7529 4.41187C33.3235 4.57391 33.1833 4.62966 33.1049 4.66956C33.0566 4.69418 32.9909 4.71432 32.9592 4.71432C32.9272 4.71432 32.8936 4.72662 32.8843 4.74173C32.875 4.75664 32.8356 4.77641 32.797 4.78517C32.7229 4.80232 32.335 4.9431 32.2288 4.99158C32.1945 5.00706 31.9705 5.09153 31.7311 5.17935C31.4916 5.26699 31.2712 5.35202 31.2415 5.36843C31.2119 5.38465 31.1839 5.39807 31.1794 5.39807C31.1749 5.39807 31.176 5.10085 31.182 4.73762C31.1988 3.71543 31.0954 3.24816 30.7281 2.68653C30.5971 2.48609 30.5855 2.47676 30.4681 2.47676C30.3158 2.47676 30.3014 2.50809 30.2537 2.94217C30.2344 3.11577 30.2128 3.27445 30.2053 3.29459C30.1979 3.31491 30.1781 3.47825 30.1613 3.65763C30.1445 3.83719 30.1096 4.18681 30.0836 4.43462C30.0579 4.68243 30.0221 5.09433 30.0041 5.34978C29.9862 5.60542 29.9668 5.81911 29.961 5.82507C29.9448 5.84111 29.6279 5.95951 29.5226 5.9886C29.4713 6.00296 29.2053 6.0906 28.9315 6.18364C28.6577 6.27669 28.3429 6.38204 28.2316 6.41784C28.1204 6.45345 27.9875 6.49708 27.9362 6.51443C27.8849 6.53195 27.7169 6.58323 27.5629 6.62835C27.1893 6.73762 27.0881 6.76783 26.9407 6.81351C26.8724 6.83477 26.7533 6.86889 26.6764 6.88903C26.5161 6.93136 26.2949 6.9927 26.0698 7.05741C25.9842 7.08202 25.8373 7.11931 25.7432 7.14001C25.649 7.16089 25.5161 7.19539 25.4476 7.21683C25.3793 7.23827 25.2462 7.27184 25.1521 7.29142C25.0581 7.31118 24.9041 7.34661 24.81 7.37048C24.7158 7.39416 24.5549 7.43014 24.4522 7.45047C24.3496 7.47061 24.1956 7.50473 24.1101 7.52636C24.0245 7.5478 23.8496 7.58267 23.7212 7.60393C23.593 7.625 23.4063 7.66173 23.3067 7.6856C23.2068 7.70928 23.0948 7.72867 23.0577 7.72848C23.0206 7.72811 22.8923 7.74862 22.7725 7.77379C22.6527 7.79897 22.4287 7.83477 22.2748 7.85341C22.1208 7.87225 21.8548 7.90712 21.6839 7.93098C20.1077 8.15157 18.0008 8.08258 16.8001 7.771C16.492 7.69119 16.0928 7.57223 15.9603 7.52095C15.7473 7.43835 15.682 7.41168 15.6282 7.38446C14.7507 6.94236 14.2815 7.45569 15.0291 8.03988C15.6443 8.52058 16.3545 8.93751 16.878 9.12546C16.9377 9.14709 17.0148 9.17674 17.0489 9.19147C17.1583 9.23883 17.6656 9.39863 17.8266 9.4363C17.9121 9.45643 18.0592 9.49186 18.1533 9.51536C19.5622 9.86553 21.7501 9.86553 23.6279 9.51517C23.7563 9.4913 23.9523 9.45643 24.0635 9.4376C24.1745 9.41877 24.3496 9.38446 24.4522 9.36134C24.5549 9.33822 24.7229 9.30167 24.8255 9.28004C25.1284 9.21664 26.2141 8.9418 26.4218 8.87598C26.6663 8.79859 26.7904 8.76093 26.9252 8.72345C27.0021 8.70182 27.1492 8.65632 27.2518 8.6222C27.3545 8.58808 27.4804 8.54892 27.5318 8.53512C27.5831 8.52132 27.6882 8.48627 27.7651 8.45737C27.8419 8.42846 27.947 8.39378 27.9983 8.38036C28.0497 8.36675 28.1686 8.32572 28.2628 8.2888C28.3569 8.25207 28.5109 8.19576 28.6049 8.16369C28.8735 8.07214 29.1381 7.9776 29.2736 7.92502C29.3421 7.89854 29.4261 7.86628 29.4603 7.8536C29.4946 7.84092 29.5754 7.80773 29.6402 7.77976C29.8886 7.67236 29.8711 7.49951 29.786 9.2049C29.7705 9.51256 29.7572 10.1629 29.7563 10.65C29.7546 11.4932 29.7175 12.0348 29.637 12.3904C29.6197 12.4672 29.5887 12.6142 29.568 12.7167C29.5474 12.8193 29.5127 12.9591 29.4911 13.0274C29.4692 13.0958 29.414 13.2707 29.3681 13.416C29.2944 13.6498 29.1398 14.0539 29.0719 14.1907C29.0586 14.2176 29.029 14.2813 29.0062 14.3326C28.442 15.5983 27.8869 15.4546 27.7322 14.0028C27.6954 13.6586 27.6982 13.4585 27.7529 12.4525C27.794 11.6977 27.272 11.2211 26.5084 11.3164C26.3358 11.338 26.0853 11.5088 26.0853 11.6049C26.0853 11.6239 26.0749 11.644 26.062 11.6496C25.9866 11.6832 25.554 12.4796 25.2294 13.1829C25.1661 13.3196 25.0689 13.5293 25.0133 13.649C24.9577 13.7686 24.8907 13.9155 24.8645 13.9754C24.8386 14.035 24.7876 14.1503 24.7514 14.2314C24.7152 14.3123 24.6855 14.3859 24.6855 14.3949C24.6855 14.4037 24.6562 14.4773 24.6202 14.5582C24.5844 14.6394 24.5409 14.7406 24.5237 14.7833C24.5064 14.826 24.4743 14.903 24.4522 14.9543C24.43 15.0056 24.3739 15.1454 24.3274 15.2649C24.2809 15.3846 24.2307 15.5105 24.2162 15.5446C24.2014 15.5789 24.1628 15.6768 24.1303 15.7622C24.0135 16.0693 23.7906 16.0236 23.7238 15.6793C23.7027 15.5711 23.6667 15.3915 23.6434 15.2806C23.6021 15.0831 23.5717 14.8532 23.5 14.1928C23.4804 14.0134 23.4618 13.6267 23.4586 13.3337C23.4519 12.7317 23.4379 12.686 23.2244 12.5773C22.8951 12.4094 22.4774 12.5916 22.4774 12.9032C22.4774 12.9987 22.4446 13.2666 22.3686 13.7889C22.3451 13.9511 22.3102 14.2099 22.291 14.3638C22.272 14.5176 22.2369 14.7484 22.2132 14.8765C22.1893 15.0048 22.1542 15.2075 22.1348 15.3272C22.0894 15.6078 22.0168 15.9507 21.9409 16.2439C21.9076 16.3721 21.8683 16.526 21.8533 16.5858C21.7787 16.887 21.5982 17.2086 21.5051 17.2064C21.3229 17.2017 21.0026 16.5275 20.9002 15.9332C20.8929 15.8905 20.8677 15.7645 20.8444 15.6535C20.7257 15.0878 20.6559 13.9021 20.7033 13.2543C20.7402 12.7471 20.7346 12.7044 20.6159 12.5972C20.3992 12.4012 19.7708 12.6291 19.7708 12.9036C19.7708 12.9534 19.7656 12.9537 19.7009 12.9075C19.2326 12.5745 18.5256 12.7313 17.9666 13.2923C17.7721 13.4876 17.5487 13.7952 17.4707 13.9754C17.4522 14.0181 17.4097 14.0981 17.3763 14.1532C17.165 14.5017 16.9388 15.195 16.7652 16.0264C16.6424 16.6142 16.7053 17.9916 16.8748 18.4258C16.8901 18.465 16.9203 18.5599 16.9424 18.6369C16.9642 18.7137 16.9989 18.8116 17.0196 18.8543C17.0403 18.8972 17.0963 19.016 17.1441 19.1186C17.564 20.0195 18.1721 20.1866 18.7994 19.5737C19.026 19.3522 19.2109 19.1294 19.2109 19.0779C19.2109 19.0604 19.2218 19.0414 19.2352 19.0358C19.3143 19.002 19.7296 18.2344 19.9259 17.7589C20.043 17.4758 20.0222 17.4878 20.1256 17.6436C20.5224 18.2427 21.1331 18.5377 21.5665 18.3397C21.7985 18.2338 22.4147 17.6175 22.4147 17.4917C22.4147 17.4749 22.4254 17.4564 22.4381 17.4508C22.467 17.438 22.6434 17.0779 22.6973 16.9217C22.7372 16.8064 22.8153 16.8279 22.8182 16.9548C22.8216 17.0997 23.1861 17.6944 23.3843 17.8784C23.8936 18.3511 24.2919 18.1641 24.7473 17.2385C24.8188 17.093 24.8894 16.9511 24.9041 16.923C24.9188 16.8948 25.0099 16.6642 25.1062 16.4102C25.3345 15.8096 25.3498 15.768 25.4291 15.5292C25.8046 14.3988 25.936 14.0138 25.9618 13.9679C25.9784 13.9383 25.992 13.8885 25.992 13.8573C25.992 13.8262 26.0125 13.7736 26.0377 13.7404C26.0627 13.7072 26.0838 13.6567 26.0844 13.6282C26.0849 13.5996 26.1051 13.5368 26.1292 13.4883C26.1533 13.44 26.1865 13.3654 26.2029 13.3227C26.5896 12.3244 26.8074 12.5508 26.5915 13.7266C26.2917 15.3598 26.9065 17.1141 27.7785 17.1141C27.9653 17.1141 28.325 16.9867 28.325 16.9205C28.325 16.9073 28.3425 16.8963 28.3638 16.8961C28.5598 16.8937 29.3095 15.8661 29.7122 15.0475L29.8959 14.6746L29.9019 15.4359C29.9095 16.3716 30.0299 17.3783 30.1975 17.9066C30.2139 17.9578 30.2552 18.1046 30.2893 18.2325C30.3237 18.3606 30.3615 18.4794 30.3739 18.4967C30.3862 18.514 30.4151 18.584 30.4383 18.6524C30.6493 19.2767 31.4032 20.3151 31.645 20.3151C31.6667 20.3151 31.6844 20.3255 31.6844 20.3384C31.6844 20.3671 31.9718 20.5321 32.1198 20.5886C32.9683 20.9116 34.3968 20.8454 35.1839 20.4467C35.2352 20.4206 35.3028 20.3867 35.3339 20.371C35.9362 20.0703 36.4073 19.6903 36.8481 19.1497C37.0424 18.9112 37.2022 18.6817 37.3668 18.4035C37.3998 18.3475 37.556 18.032 37.6281 17.8754C37.7977 17.5066 37.9037 17.0908 37.9741 16.5172C38.0146 16.1866 37.9817 16.088 37.8309 16.0891C37.7303 16.0897 37.7087 16.1169 37.5943 16.3837C37.3769 16.8905 37.1001 17.2901 36.6624 17.7279C36.5045 17.886 36.3703 18.0153 36.3643 18.0153C36.3584 18.0153 36.3143 18.052 36.2664 18.0969C35.9478 18.3955 35.2309 18.8355 34.7794 19.0095C34.3164 19.1879 34.1495 19.2275 33.8591 19.2269C32.9299 19.2256 32.2865 18.6179 31.9179 17.3938C31.8742 17.2485 31.8192 17.0667 31.7958 16.9897C31.7725 16.9129 31.7367 16.766 31.7162 16.6634C31.6958 16.5608 31.6604 16.3861 31.6376 16.275C31.5695 15.9424 31.4523 15.1294 31.4071 14.6746C31.219 12.7854 31.1697 11.7315 31.1361 8.89425L31.1159 7.18495L31.299 7.10365C31.3998 7.0589 31.6777 6.9418 31.9164 6.84335C32.1553 6.74508 32.3722 6.65353 32.3985 6.6401C32.425 6.62668 32.6424 6.53661 32.8821 6.44003C33.1215 6.34344 33.349 6.25133 33.3875 6.2351C33.4259 6.21907 33.4959 6.19054 33.543 6.17171C33.59 6.15269 33.6706 6.1195 33.7219 6.09768C33.8393 6.0479 34.49 5.7861 34.9194 5.61568C35.0991 5.54445 35.3791 5.43313 35.5417 5.36824C35.822 5.25655 35.9957 5.18886 36.4597 5.0106C36.5708 4.96772 36.7492 4.8991 36.8559 4.85789C37.3421 4.66994 37.7135 4.53065 37.828 4.49298C37.8963 4.47061 37.9799 4.43425 38.0137 4.41243C38.0474 4.39043 38.106 4.37253 38.1441 4.37253C38.182 4.37253 38.2206 4.36022 38.23 4.34512C38.2393 4.33001 38.2787 4.31044 38.3173 4.30167C38.3561 4.29272 38.5418 4.22933 38.73 4.16071C38.9181 4.09228 39.1212 4.01881 39.1811 3.99755C39.2408 3.97648 39.3179 3.94851 39.352 3.93527C39.3864 3.92222 39.4424 3.90432 39.4765 3.89537C39.5107 3.88661 39.6577 3.83552 39.8031 3.782C39.9485 3.7283 40.1096 3.67311 40.1609 3.65931C40.2122 3.64551 40.3171 3.61064 40.3942 3.58174C40.4711 3.55284 40.5762 3.51797 40.6275 3.50417C40.6788 3.49056 40.7557 3.46502 40.7985 3.44749C40.8414 3.42996 40.9392 3.39863 41.0163 3.37794C41.0932 3.35724 41.2051 3.32218 41.2651 3.30037C41.325 3.27837 41.4369 3.2435 41.514 3.2228C41.5909 3.20192 41.6889 3.17078 41.7317 3.15344C41.7746 3.1361 41.9075 3.09619 42.0273 3.06468C42.2294 3.01154 42.7201 2.87542 43.0848 2.77137C43.2475 2.72494 43.3054 2.71059 43.5359 2.6595C43.6128 2.64234 43.7527 2.60934 43.847 2.58584C43.9411 2.56254 44.1019 2.52711 44.2046 2.50734C44.3072 2.48758 44.4823 2.45252 44.5935 2.42959C44.7046 2.40665 44.9007 2.37309 45.029 2.35482C45.1574 2.33654 45.4039 2.30074 45.5771 2.27501C46.0618 2.20285 47.1704 2.21105 47.5331 2.28937C48.004 2.39118 48.0504 2.40665 48.4465 2.59274C48.7386 2.72998 49.0586 2.65017 49.137 2.42064C49.2903 1.97108 48.0066 1.08612 46.7242 0.75739C46.2882 0.645699 45.3022 0.607102 44.7335 0.679263ZM46.8487 3.9515C46.8315 3.95784 46.7826 3.9707 46.7399 3.98021C46.0566 4.1305 46.082 5.98841 46.7673 5.98841C47.3434 5.98841 47.7548 4.33841 47.255 4.03224C47.1641 3.97667 46.9146 3.92688 46.8487 3.9515ZM40.3916 7.08724C39.8727 7.22149 39.5181 7.56384 39.4056 8.0395C39.2735 8.59815 39.2005 8.92874 39.1484 9.2049C39.1292 9.30745 39.0945 9.47527 39.0711 9.57782C39.048 9.68038 39.0131 9.85528 38.9939 9.96641C38.9745 10.0775 38.9394 10.2523 38.9159 10.3548C38.8923 10.4574 38.836 10.7091 38.7908 10.9142C38.7455 11.1193 38.6966 11.3222 38.682 11.3649C38.6674 11.4076 38.6331 11.5334 38.6057 11.6446C38.5782 11.7557 38.534 11.9131 38.5073 11.9946C38.4532 12.1603 38.4689 12.2692 38.5598 12.36C38.7882 12.5883 39.2876 12.1937 39.6475 11.5006C39.8819 11.049 39.8933 11.0412 40.0756 11.2081C40.3113 11.424 40.7277 11.5189 41.0194 11.4234C41.2061 11.3623 41.3584 11.2914 41.3584 11.2657C41.3584 11.2519 41.375 11.2405 41.3953 11.2405C41.4325 11.2405 41.7382 10.9983 41.7576 10.9537C41.7738 10.9164 41.9017 10.9256 41.9433 10.967C41.9877 11.0115 41.9913 11.1641 41.9519 11.3433C41.7395 12.3116 41.7027 13.6492 41.875 14.1473C41.8989 14.2163 41.9185 14.2931 41.9187 14.3183C41.9198 14.4404 42.12 14.76 42.3197 14.958C42.8604 15.4941 43.8879 15.1713 44.5571 14.2551C44.6008 14.1952 44.6518 14.1322 44.6702 14.1152C44.7475 14.0436 45.2285 13.3406 45.3089 13.1818C45.3345 13.1311 45.3731 13.0712 45.3944 13.0485C45.4159 13.0259 45.4334 12.9886 45.4334 12.9657C45.4334 12.9427 45.4439 12.9192 45.4567 12.9135C45.4879 12.8997 45.6094 12.677 45.8571 12.1797C45.97 11.953 46.0872 11.754 46.1174 11.7378C46.2029 11.6921 46.3043 11.7975 46.3043 11.9321C46.3043 11.9921 46.3265 12.1163 46.3533 12.2081C46.3804 12.2998 46.417 12.4307 46.4349 12.4991C46.4851 12.6923 46.6885 13.179 46.74 13.2295C46.7488 13.2379 46.7921 13.3009 46.8365 13.3694C47.0676 13.7261 47.5213 14.0824 47.903 14.2073C48.3369 14.3492 48.3983 14.3582 48.9483 14.3589C49.6501 14.36 50.0629 14.2606 50.5857 13.9642C50.9179 13.7758 51.4127 13.3304 51.5851 13.0643C51.6316 12.9927 51.6786 12.9273 51.6898 12.9187C51.7009 12.9101 51.7404 12.8473 51.7776 12.7788C51.8149 12.7104 51.8728 12.608 51.9062 12.551C52.2152 12.0261 52.173 11.71 51.7936 11.7076C51.6262 11.7067 51.6333 11.7016 51.4383 11.9554C51.2776 12.1646 50.6801 12.7509 50.5695 12.8081C50.5161 12.8355 50.4726 12.8702 50.4726 12.8847C50.4726 12.8995 50.448 12.9192 50.4181 12.9289C50.3882 12.9384 50.2876 12.9901 50.1945 13.0436C49.9797 13.1672 49.7106 13.2539 49.38 13.3061C49.1492 13.3427 48.5129 13.1626 48.3608 13.0177C48.3369 12.9951 48.2845 12.9548 48.244 12.9284C48.0971 12.8323 47.8322 12.4245 47.7027 12.0951C47.4002 11.3257 47.3619 9.78946 47.6126 8.46911C47.6607 8.21571 47.5749 8.05349 47.3334 7.94161C47.255 7.90544 47.1589 7.86106 47.12 7.84316C46.6992 7.6498 46.1792 7.93732 46.0402 8.44059C45.8701 9.05554 45.405 10.4331 45.1523 11.0695C45.087 11.2345 44.8302 11.8521 44.81 11.8931C44.7973 11.9189 44.7492 12.0237 44.7027 12.1262C44.6169 12.3157 44.5904 12.3686 44.3957 12.7387C43.8802 13.7195 43.3802 14.1206 43.0848 13.7898C42.9761 13.6681 42.9879 11.4128 43.1023 10.4947C43.1742 9.91737 43.1742 9.928 43.0993 9.76913C42.8854 9.31435 42.2169 9.34251 41.3274 9.8439C40.8961 10.0869 40.6869 9.99065 40.7606 9.58323C40.7798 9.47769 40.8091 9.30055 40.8257 9.18942C40.8425 9.07829 40.8776 8.84763 40.9037 8.67665C41.1534 7.04212 41.1081 6.90171 40.3916 7.08724ZM2.10417 9.64719C1.62918 9.84129 1.19282 10.4501 0.906705 11.3183C0.79155 11.6671 0.744704 11.8251 0.708124 11.9864C0.690766 12.0632 0.655679 12.217 0.630109 12.3281C0.552282 12.6679 0.446272 13.2345 0.394574 13.5868C0.254596 14.5416 0.193379 15.0455 0.14504 15.6379C0.126937 15.8601 0.088116 16.3356 0.0586274 16.6945C-0.0195735 17.652 -0.0195736 21.5139 0.0588139 22.3971C0.0883025 22.7305 0.127123 23.1849 0.144854 23.4072C0.191513 23.9884 0.312826 24.9396 0.398679 25.3962C0.482293 25.8417 0.861726 25.9783 1.1805 25.6779C1.24265 25.6192 1.29379 25.5564 1.29379 25.5381C1.29379 25.5198 1.3076 25.5049 1.32459 25.5049C1.34157 25.5049 1.42201 25.4046 1.50338 25.2821L1.65139 25.0593L1.64485 24.5907C1.64112 24.3328 1.62022 23.8982 1.59819 23.6248C1.5437 22.9472 1.54332 19.247 1.59763 18.4348C1.61947 18.1102 1.65139 17.6276 1.66874 17.3626C1.6861 17.0977 1.72119 16.6852 1.74694 16.446C1.77251 16.2066 1.80779 15.8709 1.82515 15.7001C1.85687 15.3878 1.92126 14.9105 1.98211 14.5347C2.02205 14.2884 2.05601 14.0652 2.10081 13.7578C2.17154 13.2713 2.30536 13.074 2.56479 13.074C2.76561 13.074 2.97352 13.267 2.97352 13.4533C2.97334 13.4926 2.99461 13.6436 3.02037 13.7889C3.09558 14.2112 3.15344 14.5627 3.19133 14.8299C3.21074 14.9666 3.24527 15.1764 3.26804 15.2961C3.2908 15.4158 3.32627 15.6185 3.3468 15.7468C3.36714 15.8749 3.4026 16.0777 3.42537 16.1972C3.44795 16.317 3.48267 16.5057 3.50208 16.6168C3.53996 16.8327 3.61294 17.201 3.66072 17.4171C3.67677 17.4898 3.71802 17.6927 3.75273 17.8678C3.78726 18.0429 3.82776 18.2351 3.84288 18.295C3.85781 18.3548 3.8858 18.4807 3.90521 18.5746C3.92444 18.6686 3.9599 18.8225 3.98416 18.9166C4.10678 19.3938 4.16128 19.6 4.20626 19.7557C4.23332 19.8497 4.26878 19.9755 4.28502 20.0354C4.35986 20.311 4.48603 20.6968 4.54407 20.8279C4.56684 20.8791 4.62395 21.019 4.67098 21.1385C4.7182 21.2582 4.77102 21.3746 4.78856 21.3973C4.80592 21.4201 4.84922 21.4919 4.8845 21.5569C5.03213 21.829 5.07225 21.8918 5.19301 22.0399C6.11574 23.1713 7.33373 23.2386 8.1428 22.2028C8.37573 21.9047 8.59932 21.4272 8.69189 21.0298C8.84026 20.3923 8.90633 20.0757 8.94441 19.8178C8.96326 19.6897 8.99891 19.4589 9.02336 19.305C9.0478 19.1512 9.08196 18.9064 9.09932 18.7611C9.11686 18.6159 9.15157 18.3362 9.17677 18.1396C9.26132 17.4781 9.37181 16.1008 9.41249 15.2028C9.49536 13.3649 9.39346 11.829 9.13179 10.9763C8.95561 10.4018 8.74937 10.1012 8.48229 10.0292C8.16632 9.94441 8.04911 10.1918 7.91623 11.225C7.89588 11.3818 7.86901 12.2825 7.85501 13.2761C7.84101 14.2504 7.81637 15.2362 7.80014 15.4671C7.75087 16.1626 7.59894 17.5402 7.49667 18.2174C7.47072 18.3882 7.43508 18.6259 7.41716 18.7456C7.39943 18.8653 7.36415 19.068 7.33877 19.1963C7.31357 19.3244 7.27849 19.5062 7.26113 19.6002C7.17229 20.0801 6.99499 20.7518 6.86322 21.1076C6.56292 21.9187 6.35034 21.8803 6.00245 20.952C5.93134 20.7624 5.66837 19.7758 5.58812 19.3983C5.56628 19.2957 5.52895 19.1499 5.50525 19.0742C5.48136 18.9985 5.46195 18.8996 5.46195 18.8543C5.46195 18.8092 5.44235 18.7104 5.41846 18.6347C5.39457 18.559 5.35781 18.3921 5.3369 18.264C5.31581 18.1357 5.2811 17.9539 5.25982 17.8599C5.23836 17.766 5.20383 17.5842 5.1833 17.4559C5.16259 17.3278 5.12675 17.132 5.10342 17.0209C5.08028 16.9097 5.04594 16.721 5.02746 16.6013C5.0088 16.4816 4.97371 16.2789 4.94945 16.1506C4.92518 16.0225 4.88972 15.8128 4.87069 15.6845C4.83709 15.4587 4.78801 15.1596 4.69973 14.6435C4.67621 14.5068 4.64131 14.269 4.62171 14.1152C4.6023 13.9614 4.56665 13.7165 4.54258 13.5713C4.5185 13.426 4.48379 13.1812 4.4655 13.0274C4.44721 12.8735 4.41249 12.6078 4.38842 12.437C4.36415 12.2661 4.32888 11.9793 4.30984 11.7999C4.15419 10.336 3.05191 9.26009 2.10417 9.64719ZM14.3897 13.1622C14.3268 13.225 14.2955 13.2944 14.2809 13.4031C14.2695 13.487 14.2404 13.6177 14.216 13.6934C14.1917 13.7691 14.1717 13.8659 14.1717 13.9088C14.1717 13.9515 14.159 14.0294 14.1436 14.0818C14.1279 14.1344 14.0935 14.2752 14.067 14.3949C13.9595 14.8797 13.8522 15.335 13.8143 15.4671C13.7923 15.5439 13.7574 15.6908 13.7367 15.7934C13.7162 15.8959 13.6807 16.0358 13.6581 16.104C13.6353 16.1724 13.5937 16.3244 13.5652 16.4421C13.5368 16.5595 13.5025 16.6854 13.489 16.7218C13.4754 16.7579 13.4416 16.8646 13.4138 16.9588C13.3429 17.1984 13.1236 17.865 13.0803 17.9724C13.0603 18.0216 13.0331 18.0898 13.0194 18.1242C12.617 19.1353 12.4108 19.0624 12.1394 17.8133C12.0346 17.3309 11.9687 16.5972 11.9299 15.4825C11.8903 14.3412 11.8546 14.1566 11.6299 13.9243C11.5301 13.821 11.4756 13.7889 11.4013 13.7889C10.7878 13.7889 10.3621 16.8536 10.7259 18.6524C10.7604 18.8234 10.7985 19.0121 10.8106 19.0719C10.8225 19.1318 10.8489 19.2112 10.869 19.2485C10.8892 19.286 10.9056 19.3391 10.9056 19.3671C10.9056 19.4158 11.0336 19.7216 11.0943 19.8178C11.1105 19.8433 11.1327 19.8853 11.1439 19.911C11.3972 20.4933 12.0499 20.7553 12.5612 20.4799C13.012 20.2371 13.5769 19.4976 13.8979 18.7302C13.9159 18.6875 13.9481 18.6175 13.97 18.5746C14.0319 18.4529 14.2537 17.7751 14.313 17.5262C14.3737 17.2716 14.422 17.1853 14.483 17.223C14.5306 17.2524 14.5084 20.2614 14.4515 21.496C14.3901 22.8277 14.2522 24.3943 14.1396 25.0406C14.123 25.1357 14.1096 25.2476 14.1096 25.2892C14.1096 25.3309 14.0879 25.463 14.0614 25.5827C13.8895 26.3582 13.8505 26.5232 13.8231 26.5925C13.8063 26.6354 13.772 26.7333 13.7468 26.8101C13.645 27.1204 13.3257 27.7419 13.0599 28.1465C13.0206 28.2062 12.9713 28.2817 12.9502 28.314C12.6994 28.6979 12.2712 29.1687 12.0409 29.3138C11.9896 29.346 11.9405 29.38 11.9321 29.3887C11.9039 29.4182 11.7012 29.5084 11.5784 29.5461C11.1135 29.6893 10.6017 29.3177 10.3143 28.6282C10.048 27.9891 10.2085 26.7208 10.7072 25.525C10.8447 25.195 11.1854 24.5262 11.366 24.2308C11.4026 24.171 11.456 24.08 11.4845 24.0287C11.5129 23.9774 11.5448 23.9285 11.5553 23.92C11.5657 23.9114 11.6303 23.8206 11.6988 23.718C11.7671 23.6155 11.8459 23.5064 11.8735 23.4756C11.9011 23.4451 11.9498 23.3716 11.9815 23.3125C12.0135 23.2536 12.0502 23.2053 12.0635 23.2053C12.0767 23.2053 12.0876 23.1842 12.0876 23.1586C12.0876 23.1329 12.0997 23.112 12.1146 23.112C12.1294 23.112 12.1766 23.0594 12.2195 22.9955C12.2623 22.9313 12.3343 22.8394 12.3795 22.7913C12.7109 22.4383 12.5808 21.9968 12.1447 21.9942C11.8748 21.9927 10.9648 22.7421 10.6385 23.2345C10.5926 23.3039 10.543 23.3606 10.5282 23.3606C10.5133 23.3606 10.5011 23.3803 10.5011 23.4046C10.5011 23.4288 10.4907 23.4533 10.4778 23.459C10.4517 23.4706 10.19 23.8454 10.19 23.8713C10.19 23.8804 10.137 23.9755 10.0721 24.0826C10.0071 24.1898 9.91455 24.3613 9.86639 24.4639C9.81824 24.5664 9.76766 24.6722 9.75441 24.699C9.70383 24.8003 9.54071 25.2146 9.50432 25.3339C9.48341 25.4024 9.44889 25.5071 9.42724 25.567C9.12993 26.3928 8.97819 27.8047 9.10361 28.578C9.17752 29.0341 9.28931 29.3912 9.47408 29.7624C9.63422 30.0844 10.0424 30.5983 10.14 30.6009C10.1553 30.6013 10.1833 30.6218 10.2022 30.6464C10.2501 30.7087 10.6398 30.9099 10.8278 30.9694C11.0487 31.0395 11.8548 31.0374 12.0721 30.9664C12.5058 30.8243 12.7016 30.7346 13.0678 30.5099C13.1361 30.4682 13.1988 30.4253 13.2074 30.4145C13.216 30.4038 13.3069 30.3341 13.4095 30.2595C13.6133 30.1115 13.9909 29.7352 14.0719 29.5993C14.0999 29.5523 14.1338 29.5139 14.1473 29.5139C14.1607 29.5139 14.1717 29.4928 14.1717 29.4672C14.1717 29.4415 14.1826 29.4206 14.1956 29.4206C14.2089 29.4206 14.2473 29.3682 14.2809 29.3041C14.3147 29.2399 14.35 29.1806 14.3597 29.1721C14.3694 29.1635 14.4061 29.1005 14.4412 29.0322C14.4765 28.9638 14.5327 28.8588 14.5659 28.7991C14.5993 28.7393 14.6865 28.5435 14.7598 28.3639C14.833 28.1846 14.9112 27.9957 14.9334 27.9444C14.976 27.8465 15.213 27.0898 15.2595 26.9034C15.2744 26.8435 15.3082 26.7108 15.3345 26.6082C15.3608 26.5057 15.3985 26.3447 15.4181 26.2508C15.4375 26.1568 15.4724 25.9959 15.4952 25.8933C15.5181 25.7908 15.5506 25.6229 15.5676 25.5204C15.724 24.5715 15.7768 24.195 15.8184 23.7335C15.8362 23.537 15.874 23.1314 15.9026 22.8323C15.9767 22.0568 15.9769 19.2668 15.903 18.4814C15.875 18.1823 15.8371 17.7768 15.8192 17.5802C15.8011 17.3837 15.7658 17.076 15.7408 16.8965C15.6995 16.6024 15.6768 16.4613 15.5672 15.8243C15.5222 15.562 15.4487 15.2142 15.377 14.9231C15.3434 14.7865 15.3093 14.6395 15.3013 14.5968C15.2742 14.4536 15.0471 13.7298 14.9069 13.3395C14.8143 13.0818 14.5581 12.994 14.3897 13.1622ZM19.5299 13.9153C19.7651 14.0223 19.7699 15.1087 19.5387 15.9176C19.5094 16.0201 19.4737 16.146 19.4595 16.1972C19.3412 16.6231 18.8104 17.7928 18.6592 17.961C18.5228 18.1126 18.3095 18.0065 18.2344 17.7497C18.0051 16.9647 17.9696 16.1372 18.1462 15.6845C18.1628 15.6418 18.1936 15.551 18.2147 15.4825C18.2955 15.2202 18.5374 14.7743 18.7247 14.5428C18.8563 14.3802 19.2455 14.0033 19.3436 13.9435C19.4623 13.8711 19.4403 13.8745 19.5299 13.9153ZM50.6813 15.7234C50.6074 15.7932 50.5577 15.8819 50.5204 16.0108C50.4172 16.3677 50.1215 16.9177 49.7854 17.3783C49.4635 17.8197 48.9635 18.336 48.4972 18.7089C48.3946 18.7911 48.2897 18.875 48.2639 18.8955C48.2384 18.9162 48.1684 18.9671 48.1085 19.0087C48.0486 19.0503 47.9926 19.0925 47.984 19.1023C47.9633 19.126 47.4877 19.4449 47.473 19.4449C47.4666 19.4449 47.3866 19.4954 47.2951 19.5571C47.2035 19.6188 47.1006 19.682 47.0665 19.6975C47.0321 19.713 46.9342 19.7674 46.8487 19.8185C46.7632 19.8698 46.6372 19.9397 46.5687 19.974C46.5002 20.0084 46.4233 20.0501 46.3976 20.0669C46.3507 20.0975 45.6689 20.4227 45.3285 20.5769C45.1012 20.6798 45.1034 20.6828 45.1478 20.35C45.2764 19.3852 44.7861 18.1708 44.2682 18.1708C43.9989 18.1708 43.9243 18.421 43.7856 19.7867C43.7675 19.9662 43.7315 20.2879 43.7057 20.5016C43.68 20.7152 43.6592 20.9625 43.6596 21.0512C43.66 21.1473 43.6445 21.2224 43.6213 21.237C43.5752 21.2659 42.9203 21.4853 42.5249 21.6041C42.3709 21.6505 42.1889 21.7061 42.1206 21.7279C42.0521 21.7497 41.933 21.7844 41.8561 21.8047C41.7791 21.8253 41.6716 21.8556 41.6171 21.8722C41.5181 21.9024 41.0077 22.0369 40.8608 22.0716C40.8181 22.0816 40.7339 22.1027 40.6742 22.1186C40.5217 22.1586 39.7884 22.3311 39.601 22.3708C39.5153 22.3889 39.3614 22.4225 39.2587 22.4454C39.1561 22.4682 38.9812 22.5025 38.8699 22.5215C38.7587 22.5405 38.5838 22.5748 38.4812 22.598C38.3785 22.6209 38.1966 22.6559 38.0767 22.6759C37.9569 22.6957 37.754 22.7315 37.6256 22.7551C37.196 22.8348 36.8653 22.8911 36.6458 22.9216C35.4166 23.0938 35.4147 23.0941 35.3095 23.204C35.1249 23.3966 35.1932 23.7404 35.4364 23.8418C35.9 24.0354 37.9457 24.0509 39.2121 23.8704C39.7966 23.7872 39.9705 23.7596 40.2076 23.713C40.3358 23.6876 40.5178 23.653 40.6118 23.6358C40.7059 23.6188 40.8599 23.586 40.9541 23.5631C41.0482 23.54 41.3071 23.4775 41.5295 23.4242C42.1796 23.2683 42.9276 23.0626 43.2113 22.9616C43.447 22.8776 43.5152 22.875 43.4911 22.9504C43.4814 22.9813 43.4597 23.1501 43.4429 23.3255C43.4261 23.501 43.405 23.6565 43.3959 23.6712C43.3867 23.686 43.3657 23.8004 43.349 23.9256C43.3222 24.1269 43.2899 24.3147 43.1947 24.8211C43.1803 24.8982 43.1458 25.0589 43.1178 25.1786C43.09 25.2983 43.0553 25.459 43.0409 25.536C43.0263 25.6129 42.9694 25.8437 42.9142 26.0488C42.7828 26.5375 42.7716 26.5778 42.7115 26.779C42.6835 26.8732 42.649 26.9919 42.635 27.0432C42.5685 27.2843 42.1818 28.3997 42.1016 28.5815C42.0827 28.6242 42.0497 28.7013 42.0282 28.7525C41.9401 28.963 41.9213 29.0072 41.8617 29.1409C41.6387 29.6421 41.3625 30.1668 41.2763 30.253C41.2531 30.2761 41.2341 30.3065 41.2341 30.3203C41.2341 30.3574 40.9974 30.6015 40.9614 30.6015C40.7621 30.6015 40.6449 29.3201 40.6437 27.1245C40.643 25.8525 40.6423 25.8374 40.5741 25.7261C40.3188 25.3089 39.8207 25.3024 39.7091 25.7149C39.687 25.796 39.659 25.8763 39.6469 25.8933C39.6346 25.9105 39.607 25.9791 39.5853 26.046C39.5402 26.1861 39.4013 26.3343 39.2891 26.3624C39.2094 26.3826 39.1508 26.3766 38.8078 26.3136C38.3436 26.2286 38.0547 26.3479 37.5827 26.82C37.2854 27.1172 36.7858 27.7315 36.7858 27.7997C36.7858 27.8167 36.7753 27.8351 36.7624 27.8409C36.7219 27.8588 36.5864 28.0898 36.4463 28.3796C36.3718 28.5334 36.299 28.683 36.2847 28.7121C36.2326 28.8169 36.0775 29.3156 36.0448 29.4827C35.9002 30.2252 35.8933 30.5817 36.0109 31.2541C36.0803 31.6518 36.0801 31.7374 36.0099 31.9265C35.9728 32.0268 35.9162 32.1877 35.8843 32.2841C35.8524 32.3805 35.8126 32.4855 35.796 32.5172C35.7794 32.5489 35.7415 32.6379 35.7121 32.7149C35.6236 32.9459 35.6122 32.9742 35.5603 33.0924C35.5329 33.1549 35.5105 33.2151 35.5105 33.2265C35.5105 33.2485 35.4371 33.4117 35.196 33.9269C35.112 34.1062 35.0299 34.2741 35.0135 34.2998C34.997 34.3253 34.9558 34.4023 34.922 34.4706C34.888 34.539 34.8179 34.6649 34.766 34.7503C34.7139 34.8359 34.6618 34.9267 34.6499 34.9524C34.6381 34.978 34.6204 35.0059 34.6105 35.0145C34.6006 35.0231 34.5515 35.085 34.5013 35.1519C33.9388 35.9054 33.5799 35.771 33.3455 34.7193C33.0989 33.6132 33.0889 30.6871 33.3196 27.2452C33.3453 26.8607 33.38 26.3222 33.3966 26.0488C33.4132 25.7753 33.448 25.2718 33.4739 24.93C33.5424 24.0214 33.5364 23.7822 33.4377 23.4583C33.2264 22.7658 32.7959 22.2759 32.4291 22.3112C32.1501 22.338 32.1324 22.3912 32.1068 23.2873C32.096 23.6608 32.0668 24.3371 32.0418 24.7902C32.017 25.2431 31.9823 25.9073 31.9648 26.2662C31.8888 27.8251 31.7824 28.9698 31.6773 29.3585C31.5026 30.0054 31.4119 30.2834 31.2466 30.6792C31.2324 30.7134 31.1561 30.9004 31.0773 31.0947C30.9983 31.289 30.9218 31.4708 30.9073 31.4987C30.8929 31.5265 30.7852 31.7451 30.6684 31.9843C29.8162 33.7273 29.0095 34.5886 28.4836 34.3169C27.878 34.0041 27.7802 32.6973 28.202 30.5603C28.3037 30.0453 28.1434 29.6869 27.7339 29.5146C27.3307 29.3447 26.7386 29.4124 26.7386 29.6285C26.7386 29.6509 26.7268 29.6692 26.7124 29.6692C26.6981 29.6692 26.6706 29.7007 26.6512 29.7391C26.632 29.7777 26.5739 29.8789 26.5222 29.9645C26.4705 30.0499 26.4187 30.1407 26.4069 30.1665C26.395 30.192 26.3554 30.2619 26.3186 30.3218C26.2819 30.3816 26.1951 30.5355 26.1258 30.6638C26.0566 30.7919 25.9683 30.9528 25.9297 31.021C25.794 31.2612 25.269 32.2789 25.2162 32.404C25.1981 32.4467 25.1699 32.5027 25.1534 32.5284C25.1232 32.5754 24.821 33.2067 24.6775 33.5228C24.6348 33.6168 24.5547 33.7917 24.4997 33.9112C24.4446 34.0309 24.3813 34.1708 24.3591 34.222C24.3369 34.2733 24.2755 34.4087 24.2225 34.523C23.9808 35.0449 23.9752 35.0721 24.0818 35.1985C24.3589 35.5276 25.1889 34.7874 25.8044 33.6626C25.8418 33.5942 25.9272 33.4404 25.9942 33.3209C26.1607 33.0238 26.4898 32.3524 26.4898 32.3099C26.4898 32.291 26.5185 32.2798 26.5538 32.2852C26.6159 32.2949 26.6182 32.316 26.6262 32.9323C26.6344 33.5689 26.638 33.5965 26.777 34.0977C26.8294 34.2867 27.0388 34.704 27.1516 34.8435C27.3341 35.0699 27.6807 35.3861 27.7471 35.3871C27.7628 35.3872 27.7977 35.4061 27.8248 35.429C28.0549 35.6241 28.6964 35.7177 29.0403 35.6063C29.3474 35.507 30.1602 34.8549 30.1602 34.7081C30.1602 34.6886 30.1729 34.6727 30.1883 34.6727C30.2036 34.6727 30.2492 34.6213 30.2893 34.5584C30.3296 34.4958 30.3996 34.3872 30.4453 34.3177C30.595 34.0885 30.8134 33.7113 30.8134 33.6815C30.8134 33.6654 30.824 33.6475 30.8367 33.642C30.8593 33.6319 30.981 33.3915 31.1251 33.0721C31.1637 32.9867 31.2354 32.8293 31.2843 32.7225C31.3334 32.6157 31.3733 32.514 31.3733 32.4967C31.3733 32.4795 31.3862 32.4411 31.4017 32.4113C31.4174 32.3817 31.4573 32.2901 31.4903 32.2077C31.5825 31.9787 31.6083 32.0406 31.5911 32.4506C31.5558 33.2961 31.5792 34.5834 31.635 34.8747C31.7841 35.6533 31.8363 35.8107 32.1292 36.3636C32.1992 36.4956 32.475 36.7883 32.6488 36.9146C33.1232 37.2599 34.1152 37.2286 34.5095 36.8558C34.5321 36.8344 34.5612 36.817 34.5743 36.817C34.6215 36.817 35.1945 36.2375 35.3272 36.0555C35.5081 35.8077 35.5932 35.683 35.651 35.5808C35.6775 35.5344 35.7259 35.4542 35.7587 35.4029C35.8209 35.3059 36.3065 34.3365 36.3541 34.2142C36.3692 34.1758 36.3948 34.113 36.4112 34.0744C36.5122 33.8366 36.5577 33.7156 36.6772 33.3675C36.8772 32.7844 36.9648 32.7072 37.579 32.5733C38.4437 32.3846 39.1049 31.7281 39.3209 30.8441C39.3714 30.6367 39.4299 30.5482 39.4299 30.6789C39.4299 30.7214 39.5838 31.0593 39.6562 31.1756C39.7268 31.289 40 31.5649 40.0417 31.5649C40.0644 31.5649 40.0831 31.5763 40.0831 31.5901C40.0831 31.6509 40.5947 31.8135 40.786 31.8135C41.2264 31.8135 41.7281 31.4574 42.1867 30.8191C42.3065 30.6524 42.5405 30.2698 42.5405 30.2407C42.5405 30.1928 42.6857 30.0421 42.7318 30.0421C42.8321 30.0421 42.8537 30.1417 42.8209 30.4518C42.7421 31.1998 42.7884 32.839 42.9153 33.787C42.9569 34.098 43.0739 34.6733 43.1462 34.9213C43.1686 34.9981 43.2111 35.145 43.241 35.2476C43.2707 35.3501 43.3072 35.4473 43.3222 35.4635C43.3371 35.4797 43.3492 35.5172 43.3492 35.5465C43.3492 35.5759 43.3692 35.6395 43.3935 35.6878C43.4177 35.7363 43.4974 35.9017 43.5704 36.0555C43.6434 36.2094 43.7145 36.3399 43.7283 36.3457C43.7423 36.3513 43.7537 36.3705 43.7537 36.388C43.7537 36.6308 44.607 37.4777 45.1171 37.7411C46.0034 38.1991 47.4941 38.2334 48.2876 37.8141C48.3175 37.7982 48.4047 37.7563 48.4817 37.7206C48.8113 37.5677 49.0687 37.3794 49.4 37.0484C49.6352 36.8135 49.9748 36.3874 49.9748 36.3274C49.9748 36.3089 49.9868 36.2892 50.0013 36.2836C50.0484 36.2651 50.4726 35.4585 50.4726 35.3872C50.4726 35.3699 50.4845 35.3313 50.4991 35.3015C50.5805 35.1359 50.634 34.9903 50.747 34.6261C50.8158 34.4038 50.8888 34.1452 50.9088 34.051C50.9287 33.9571 50.9633 33.8032 50.9853 33.7093C51.0073 33.6153 51.0418 33.4335 51.062 33.3052C51.0822 33.1771 51.118 32.9533 51.1413 32.8081C51.2136 32.3606 51.3102 31.1137 51.2904 30.8853C51.2804 30.768 51.1926 30.6947 51.0626 30.6947C50.8946 30.6947 50.8586 30.7686 50.7374 31.363C50.6352 31.8638 50.5913 32.0399 50.4269 32.606C50.4021 32.6915 50.3664 32.8174 50.3474 32.8857C50.3285 32.9541 50.294 33.0589 50.2707 33.1187C50.2473 33.1786 50.1908 33.3324 50.1449 33.4607C50.099 33.5888 50.0349 33.7531 50.0025 33.8258C49.9702 33.8985 49.9175 34.0173 49.8856 34.09C49.7871 34.3142 49.7266 34.4335 49.6303 34.595C49.5794 34.6804 49.5241 34.7783 49.5075 34.8126C49.4726 34.8842 49.4067 34.9918 49.3836 35.0145C49.3748 35.0231 49.3272 35.093 49.2778 35.1698C49.0792 35.4786 48.6479 35.9354 48.3888 36.1116C48.3115 36.164 48.2414 36.2166 48.233 36.2286C48.2126 36.2569 47.8853 36.4251 47.6966 36.5042C47.2766 36.68 46.6591 36.7432 46.3509 36.6418C46.1533 36.5767 45.9933 36.4989 45.9933 36.468C45.9933 36.4549 45.9743 36.4441 45.9513 36.4441C45.9039 36.4441 45.4956 36.0268 45.4956 35.9783C45.4956 35.961 45.4849 35.9468 45.4718 35.9468C45.444 35.9468 45.4289 35.92 45.2585 35.5718C45.1303 35.3095 44.9705 34.8905 44.9097 34.6571C44.7063 33.8752 44.6195 33.2994 44.5137 32.0311C44.4549 31.3253 44.4642 28.1736 44.5277 27.2918C44.5474 27.0184 44.5779 26.5498 44.5956 26.2508C44.6131 25.9517 44.6473 25.4762 44.6716 25.1941C44.6958 24.9121 44.7305 24.4926 44.7486 24.2618C44.7669 24.0311 44.802 23.6464 44.8268 23.4072C44.8517 23.168 44.8798 22.8773 44.8892 22.7615C44.9142 22.4574 44.9381 22.3628 44.9944 22.3453C45.0575 22.3257 45.2643 22.2463 45.3867 22.1946C45.4381 22.1728 45.515 22.1409 45.5577 22.1234C46.2914 21.8241 46.5118 21.733 46.5519 21.7123C46.5782 21.6988 46.6488 21.6669 46.7087 21.6418C46.9782 21.5284 47.606 21.2286 47.7514 21.1441C48.0495 20.9705 48.126 20.9241 48.1396 20.9082C48.148 20.8982 48.204 20.8631 48.2639 20.8301C48.3239 20.7973 48.3798 20.7609 48.3884 20.7494C48.397 20.7378 48.467 20.6891 48.5439 20.6414C48.621 20.5935 48.691 20.5456 48.6996 20.5349C48.7079 20.5241 48.7779 20.4669 48.8548 20.4074C49.1122 20.2088 49.1471 20.1769 49.5385 19.7835C49.9614 19.3585 50.0101 19.3054 50.1477 19.1186C50.1981 19.0501 50.2578 18.9748 50.2802 18.9511C50.3028 18.9272 50.3448 18.8713 50.3733 18.8267C50.4021 18.7822 50.4362 18.7316 50.4495 18.7145C50.5409 18.5963 50.7074 18.3102 50.9108 17.922C50.975 17.7997 51.0947 17.5183 51.0947 17.49C51.0947 17.4725 51.1143 17.4121 51.1383 17.3559C51.1624 17.2998 51.1964 17.198 51.2141 17.1296C51.2318 17.0613 51.268 16.9205 51.2949 16.8169C51.3666 16.5387 51.3629 15.8711 51.2891 15.7885C51.1085 15.5866 50.8546 15.5594 50.6813 15.7234ZM27.0172 20.9414C26.9067 21.0635 26.8022 21.179 26.785 21.1978C26.7679 21.2164 26.6699 21.3296 26.5674 21.4493C26.4648 21.5691 26.3731 21.6738 26.3638 21.6824C26.3545 21.691 26.1893 21.8937 25.9969 22.1331C25.8042 22.3723 25.6223 22.5961 25.5922 22.6302C25.562 22.6645 25.4963 22.7484 25.4459 22.8167C25.3955 22.8851 25.3391 22.955 25.3207 22.9722C25.3022 22.9892 25.2326 23.0801 25.1658 23.1741C25.0991 23.2681 25.0295 23.3591 25.011 23.3761C24.9926 23.3932 24.9371 23.4631 24.8877 23.5316C24.8382 23.5998 24.7895 23.6628 24.7794 23.6714C24.7693 23.68 24.6577 23.8267 24.5312 23.9977C24.4047 24.1685 24.2929 24.3155 24.2828 24.324C24.2725 24.3326 24.1669 24.4725 24.0478 24.6347C23.9287 24.7971 23.8238 24.9369 23.8143 24.9455C23.7596 24.9957 23.5969 25.2237 23.5969 25.2504C23.5969 25.2679 23.5855 25.2869 23.5715 25.2925C23.5577 25.2983 23.459 25.4217 23.3524 25.567C23.2456 25.7123 23.1413 25.8521 23.1206 25.8778C23.0997 25.9034 23.0486 25.9733 23.0069 26.0332C22.9651 26.093 22.9233 26.1489 22.9138 26.1575C22.9043 26.1661 22.8207 26.278 22.7279 26.4061C22.6353 26.5344 22.3834 26.8821 22.1682 27.1788C21.9532 27.4756 21.7384 27.7736 21.691 27.8411C21.6437 27.9086 21.5915 27.9804 21.5749 28.0007C21.5209 28.0667 21.3423 28.3153 21.2891 28.3984C21.2604 28.4432 21.2186 28.4991 21.196 28.5228C21.1734 28.5465 21.1144 28.6282 21.065 28.7042C21.0153 28.7801 20.9621 28.8571 20.9465 28.875C20.8552 28.9806 20.0196 30.168 20.0196 30.1924C20.0196 30.2086 19.9965 30.2308 19.9681 30.2418C19.9213 30.2597 19.9185 30.226 19.9364 29.8644C20.0708 27.1613 20.0377 25.675 19.8136 24.3395C19.6553 23.3975 19.5355 22.8659 19.4075 22.537C19.1282 21.8197 18.8149 21.6138 18.2311 21.7637C18.1284 21.79 18.014 21.8189 17.9769 21.8279C17.7703 21.8776 17.7163 22.1256 17.8024 22.6302C18.1708 24.7954 18.3494 29.0751 18.2152 32.5284C18.1581 34.0024 18.0047 36.3518 17.8888 37.5317C17.8643 37.7796 17.8294 38.1502 17.8112 38.3554C17.7929 38.5605 17.758 38.903 17.7335 39.1167C17.7091 39.3304 17.6732 39.666 17.6542 39.8625C17.635 40.0591 17.6073 40.3069 17.593 40.4132C17.5017 41.0839 18.2699 41.4178 18.7516 40.9168C18.7813 40.8858 18.8233 40.8493 18.8451 40.8355C19.0235 40.7221 19.2109 40.25 19.2109 39.9138C19.2109 39.8297 19.2313 39.5843 19.2561 39.3688C19.2809 39.1532 19.3166 38.7879 19.335 38.5573C19.3535 38.3265 19.3886 37.928 19.4129 37.6716C19.4371 37.4152 19.472 36.9957 19.4905 36.7393C19.509 36.4829 19.5443 36.0494 19.5691 35.7758C19.5939 35.5025 19.6228 35.1282 19.6333 34.9446C19.654 34.5815 19.6766 34.5316 19.7609 34.664C19.7912 34.7115 19.8248 34.7574 19.8354 34.7659C19.8461 34.7745 19.8733 34.8165 19.8957 34.8592C19.9345 34.9326 20.4786 35.6962 20.5157 35.7292C20.5254 35.7378 20.5715 35.796 20.6182 35.8586C20.6648 35.9213 20.721 35.9912 20.7428 36.0141C20.7647 36.0369 20.8311 36.1185 20.8905 36.1954C20.9498 36.2724 21.0336 36.3721 21.0767 36.4173C21.1199 36.4624 21.218 36.5737 21.2949 36.6647C21.624 37.0533 22.299 37.7341 22.7725 38.1549C23.1199 38.4635 23.6335 38.8806 23.7539 38.9517C23.8044 38.9813 23.8457 39.0167 23.8457 39.0302C23.8457 39.0436 23.8666 39.0546 23.8923 39.0546C23.9179 39.0546 23.939 39.0671 23.939 39.0824C23.939 39.0977 24.0405 39.178 24.1645 39.261C24.2886 39.344 24.397 39.4189 24.4056 39.4275C24.4142 39.4359 24.4491 39.4601 24.4834 39.481C24.5176 39.5019 24.7259 39.6324 24.9463 39.7708C25.6253 40.197 26.2565 40.5207 26.9718 40.8094C27.1258 40.8715 27.2798 40.9339 27.314 40.9481C27.4767 41.0156 27.6361 41.074 27.7496 41.1077C27.8179 41.1282 27.9229 41.1639 27.9829 41.1872C28.0426 41.2103 28.1686 41.2494 28.2628 41.2739C28.3569 41.2983 28.4758 41.3317 28.5271 41.3479C28.5784 41.3643 28.6975 41.3938 28.7916 41.4137C28.8856 41.4337 29.0396 41.4691 29.1337 41.4928C29.4082 41.5616 29.7514 41.627 30.0359 41.6651C30.1813 41.6845 30.3772 41.7137 30.4713 41.7301C31.0566 41.8327 32.7886 41.8403 33.3953 41.7432C34.149 41.6226 34.241 41.6033 34.7484 41.4628C34.8511 41.4342 34.9771 41.4005 35.0286 41.3876C35.0801 41.3747 35.1501 41.3498 35.1841 41.3319C35.2182 41.3141 35.302 41.2824 35.3705 41.2612C35.6085 41.1877 36.5648 40.726 36.8401 40.5521C37.059 40.4135 37.3294 40.2215 37.3406 40.1967C37.3462 40.1838 37.3636 40.1734 37.3793 40.1734C37.4091 40.1734 37.4935 40.107 37.7057 39.9162C38.1667 39.5023 37.7296 38.8976 37.1281 39.1169C37.0682 39.1387 36.9702 39.1745 36.9103 39.1963C36.7805 39.2437 36.3602 39.3725 36.1637 39.4253C36.0868 39.446 35.9607 39.4814 35.8838 39.504C35.8069 39.5265 35.6598 39.5618 35.5571 39.5821C35.4545 39.6026 35.2794 39.6378 35.1684 39.6606C34.9179 39.7117 34.4299 39.7878 34.0795 39.8305C33.7358 39.8722 32.1001 39.8719 31.7346 39.8299C31.3573 39.7866 30.8791 39.7124 30.6113 39.6557C30.4914 39.6304 30.3235 39.5955 30.238 39.5785C30.1525 39.5614 30.0125 39.5273 29.9269 39.5027C29.8414 39.478 29.6945 39.4385 29.6003 39.415C29.2372 39.3242 28.0984 38.914 27.8369 38.7799C27.8059 38.7639 27.7456 38.7369 27.7029 38.7193C27.6116 38.6822 26.7447 38.2541 26.6764 38.2123C26.6337 38.1864 26.0527 37.8519 25.8675 37.7467C25.8248 37.7225 25.7828 37.6947 25.7742 37.6848C25.7656 37.675 25.7102 37.6401 25.6508 37.6071C25.5915 37.5743 25.5284 37.5364 25.5109 37.5232C25.4931 37.5097 25.3388 37.4018 25.1676 37.2832C24.9967 37.1644 24.8397 37.0529 24.819 37.0354C24.7985 37.0179 24.768 37.0035 24.7516 37.0035C24.7352 37.0035 24.7171 36.9929 24.7115 36.9798C24.7057 36.9668 24.5891 36.8737 24.4522 36.773C24.3154 36.6723 24.1895 36.5746 24.1723 36.5558C24.1551 36.5372 24.0642 36.4631 23.9702 36.3917C23.8759 36.3201 23.7708 36.2362 23.7361 36.2053C23.6296 36.1096 23.2753 35.8062 23.1773 35.727C23.0683 35.6388 21.6561 34.2304 21.4493 34.0039C21.3716 33.9187 21.2324 33.7581 21.14 33.6472C21.0478 33.536 20.9571 33.4311 20.9386 33.4141C20.9203 33.3969 20.8565 33.3201 20.7968 33.2433C20.6631 33.071 20.6045 32.9979 20.5629 32.9522C20.5452 32.9326 20.4967 32.8678 20.455 32.8081C20.4132 32.7482 20.3485 32.6658 20.3112 32.6252C20.1385 32.4365 20.1561 32.3119 20.3998 32C20.4468 31.9399 22.0043 29.7727 22.7897 28.6748C22.8571 28.5808 22.9241 28.4891 22.9388 28.4712C22.9536 28.4531 23.0062 28.3764 23.0558 28.3005C23.1053 28.2248 23.1624 28.1417 23.1826 28.1158C23.3065 27.9578 23.4368 27.7755 23.4885 27.688C23.5211 27.6324 23.559 27.5871 23.5724 27.5871C23.5859 27.5871 23.5969 27.5722 23.5969 27.5539C23.5969 27.5263 23.6794 27.4027 23.7927 27.2608C23.928 27.0915 24.7167 25.9642 24.7167 25.9403C24.7167 25.9231 24.7303 25.909 24.7469 25.909C24.7636 25.909 24.8005 25.8635 24.8287 25.8079C24.8571 25.7523 24.8996 25.686 24.9233 25.6602C24.9472 25.6347 25.1128 25.4038 25.2916 25.1475C25.4704 24.8911 25.631 24.6645 25.6488 24.6438C25.6665 24.6231 25.6809 24.5918 25.6809 24.5739C25.6809 24.556 25.6926 24.5415 25.707 24.5415C25.7214 24.5415 25.7481 24.5101 25.7664 24.4715C25.7847 24.4331 25.8216 24.3736 25.8487 24.3395C25.9819 24.1713 26.1786 23.8855 26.1786 23.8603C26.1786 23.8446 26.1897 23.8273 26.2029 23.8215C26.2285 23.8107 26.299 23.7085 26.8205 22.9256C26.997 22.6606 27.1531 22.4298 27.1671 22.4128C27.1813 22.3956 27.2027 22.3606 27.2148 22.335C27.2272 22.3093 27.2789 22.2185 27.33 22.1331C27.8645 21.2392 27.6131 20.2817 27.0172 20.9414ZM27.7718 25.1527C27.305 25.3826 26.8412 26.6774 26.9997 27.3086C27.1436 27.8812 27.6034 27.7756 27.9633 27.0872C28.0295 26.9604 28.1135 26.8008 28.1499 26.7324C28.6454 25.8019 28.4144 24.8362 27.7718 25.1527ZM39.1178 27.5711C39.3604 27.6964 39.3888 27.9632 39.2162 28.4913C39.1971 28.5495 39.1609 28.66 39.1355 28.7369C38.7576 29.8892 38.0383 31.1659 37.6555 31.3636C37.2421 31.5772 37.168 31.1752 37.4377 30.1819C37.5017 29.9463 37.663 29.4464 37.7182 29.3119C37.7322 29.2776 37.7744 29.1728 37.8117 29.0788C37.8918 28.8776 38.1589 28.3242 38.1867 28.3018C38.1971 28.2933 38.2328 28.2373 38.2658 28.1775C38.2987 28.1176 38.3326 28.0619 38.3414 28.0533C38.35 28.0447 38.3946 27.9875 38.4403 27.9259C38.7173 27.5545 38.9002 27.4587 39.1178 27.5711Z" fill="#4E1909"/>
</svg>
